<?xml version="1.0" encoding="UTF-8"?>
<svg width="76px" height="127px" viewBox="0 0 76 127" version="1.1" xmlns="http://www.w3.org/2000/svg" xmlns:xlink="http://www.w3.org/1999/xlink">
    <title>Group 22</title>
    <defs>
        <polygon id="path-1" points="8.36431227e-05 0.0296593674 74.8902881 0.0296593674 74.8902881 115 8.36431227e-05 115"></polygon>
    </defs>
    <g id="Symbols" stroke="none" stroke-width="1" fill="none" fill-rule="evenodd">
        <g id="Technology-Plate" transform="translate(-1151.000000, -2088.000000)">
            <g id="Autonimously-Awesome" transform="translate(-122.842320, 1595.000000)">
                <g id="Group-22" transform="translate(1274.127528, 493.000000)">
                    <path d="M67.0607892,118.961072 C66.8578153,119.047783 66.9453617,119.080683 67.0607892,118.961072" id="Fill-1" fill="#2E3C45"></path>
                    <g id="Group-5" transform="translate(0.000000, 12.000000)">
                        <mask id="mask-2" fill="white">
                            <use xlink:href="#path-1"></use>
                        </mask>
                        <g id="Clip-4"></g>
                        <path d="M68.5562175,103.908236 C68.5569145,103.915791 68.5573327,103.923066 68.5583086,103.930341 C68.5569145,103.926144 68.5560781,103.922786 68.554684,103.918449 C68.555381,103.915371 68.5555204,103.911454 68.5562175,103.908236 M68.4124907,104.552628 C68.3493401,104.82222 68.2545446,105.091813 68.1596097,105.361405 C68.1515242,105.386727 68.1451115,105.406594 68.1384201,105.427019 C68.0688569,105.557549 67.9867472,105.700249 67.970158,105.7418 C67.8278253,106.011393 67.653987,106.265176 67.4802881,106.534629 C67.466487,106.557853 67.4521283,106.577719 67.4377695,106.596046 C67.4287082,106.606679 67.4190892,106.618011 67.4101673,106.628644 C67.4080762,106.631022 67.4058457,106.6334 67.4037546,106.635639 C67.4040335,106.635499 67.4041729,106.635499 67.4044517,106.635219 C67.3624907,106.685024 67.3206691,106.73483 67.2749442,106.788412 C67.0852138,106.994489 66.8957621,107.184757 66.6902788,107.375024 C66.6992007,107.36621 66.6051022,107.450572 66.5171375,107.527378 C66.4617937,107.558717 66.4160688,107.599848 66.3584944,107.628808 C66.1057528,107.803127 65.837119,107.961776 65.5684851,108.104337 C65.4504089,108.163656 65.3326115,108.210103 65.2273606,108.280614 C64.979777,108.356162 64.7425093,108.443041 64.4783364,108.51663 C64.3362825,108.548388 64.2097026,108.580146 64.0676487,108.611764 C64.0472955,108.614702 64.0288941,108.619599 64.0096561,108.623376 C63.716487,108.589939 63.3580762,108.67514 63.0564033,108.67514 L58.964303,108.67514 L39.7992937,108.67514 L19.006868,108.67514 L12.8609108,108.67514 L11.7233643,108.67514 L11.5654182,108.67514 C11.4232249,108.67514 11.2810316,108.67514 11.1229461,108.659331 C10.9610967,108.647719 10.8819145,108.6466 10.8540335,108.650657 C10.5757807,108.584063 10.2317286,108.478577 10.1749907,108.469203 C10.095948,108.453254 9.38498141,108.278796 9.38498141,108.199611 C9.38498141,108.167713 10.0011524,108.500821 9.57457249,108.262987 C9.44827138,108.199611 9.32183086,108.136235 9.21114312,108.072719 C8.91100372,107.914209 8.6266171,107.723802 8.34223048,107.533534 C8.32815056,107.52444 8.31811338,107.517725 8.30626394,107.51003 C8.18512082,107.399647 8.05101301,107.26604 8.04209108,107.248133 C7.83660781,107.057865 7.66276952,106.851788 7.47331784,106.661521 C7.46160781,106.649209 7.45324349,106.640675 7.44306691,106.630182 C7.3997119,106.566527 7.35984201,106.506648 7.34687732,106.487202 C7.17303903,106.233418 7.01509294,105.963826 6.87276022,105.694373 C6.85756506,105.67129 6.79776022,105.566223 6.743671,105.462135 C6.73223978,105.422543 6.71829926,105.375955 6.69906134,105.313698 C6.6042658,105.012488 6.50947026,104.711137 6.43056691,104.409927 C6.39892193,104.267086 6.38302974,104.124526 6.35152416,103.997774 C6.33800186,103.93188 6.32866171,103.885432 6.32127323,103.849617 C6.31513941,103.625213 6.31987918,103.368212 6.31987918,103.316028 L6.31987918,102.713327 L6.31987918,99.0505353 L6.31987918,83.9238382 L6.31987918,62.7085766 L6.31987918,40.3673783 L6.31987918,21.8316727 L6.31987918,12.254635 L6.31987918,11.6045073 C6.31987918,11.4514538 6.34315985,11.2866484 6.34901487,11.130517 C6.40296468,10.864562 6.45816914,10.6053224 6.52522305,10.3360097 C6.54306691,10.273753 6.60078067,10.0306022 6.66211896,9.82984185 C6.68498141,9.79710462 6.72150558,9.73764599 6.77810409,9.63845499 C6.85714684,9.47994526 6.93605019,9.33710462 7.01509294,9.17873479 C7.15589219,8.938382 7.32080855,8.72195255 7.46718401,8.48719586 C7.4695539,8.48481752 7.47080855,8.48341849 7.47331784,8.48090024 C7.56811338,8.38590633 7.64701673,8.2748236 7.74181227,8.17968978 C7.93140335,7.97347324 8.13674721,7.7990146 8.3264777,7.60888686 C8.36021375,7.57628954 8.38600372,7.55096715 8.40844796,7.52914234 C8.51997212,7.45961071 8.63637546,7.39371655 8.67401487,7.37105231 C8.9426487,7.19673358 9.21114312,7.06970195 9.47977695,6.91133212 C9.5373513,6.8791545 9.57931227,6.85509124 9.61360595,6.83508516 C9.70491636,6.80318735 9.78716543,6.77716545 9.77991636,6.78430049 C10.0485502,6.68930657 10.317184,6.60984185 10.5858178,6.54646594 C10.7264777,6.51526764 10.8668587,6.49903893 10.9923234,6.46812044 C10.9991543,6.46784063 11.0050093,6.46770073 11.0123978,6.46728102 C11.2810316,6.45147202 11.549526,6.43552311 11.8181599,6.43552311 L13.2400929,6.43552311 L29.6401394,6.43552311 L51.475316,6.43552311 C55.3620725,6.43552311 59.2486896,6.40390511 63.1513383,6.43552311 L63.5146283,6.43552311 C63.6441357,6.43552311 63.7748978,6.44909367 63.9163941,6.46336375 C64.2458086,6.53723236 64.5746654,6.59990876 64.8891636,6.70511557 C65.0156041,6.75268248 65.1577974,6.80024939 65.2840985,6.8318674 C65.317277,6.8426399 65.3447398,6.85159367 65.3696933,6.85956813 C65.6029182,6.98422141 65.9119796,7.17071168 65.9320539,7.18064477 C65.9879554,7.20890511 66.2475279,7.35314477 66.4509201,7.48297445 C66.4757342,7.50689781 66.5058457,7.53627737 66.5482249,7.57712895 C66.6902788,7.71982968 66.8483643,7.84672141 66.9905576,7.98942214 C67.0199721,8.01908151 67.2392565,8.2329927 67.3930204,8.39793796 C67.4009665,8.40954988 67.4077974,8.41948297 67.4171375,8.43347324 C67.5119331,8.57617397 67.6067286,8.7188747 67.7015242,8.86143552 C67.8596097,9.13116788 68.0016636,9.40062044 68.1439963,9.67007299 C68.1667193,9.71120438 68.1827509,9.74016423 68.195855,9.76338808 C68.23921,9.9055292 68.2782435,10.0507482 68.2861896,10.0665572 C68.3650929,10.3360097 68.4441357,10.6057421 68.4915335,10.8910036 C68.4915335,10.8763139 68.5117472,10.9633333 68.531961,11.0625243 C68.5269424,10.9384307 68.5301487,10.8633029 68.5376766,11.0910645 C68.559145,11.1989294 68.5782435,11.3114112 68.5705762,11.3191058 C68.5571933,11.3280596 68.5477138,11.2751764 68.5413011,11.206764 C68.5442286,11.4031873 68.5564963,11.6004501 68.5705762,11.8107238 L68.5705762,13.9194769 L68.5705762,26.7471533 L68.5705762,47.0112165 L68.5705762,69.4633577 L68.5705762,89.4101217 L68.5705762,101.619288 L68.5705762,103.252512 C68.5705762,103.44278 68.5705762,103.617238 68.554684,103.807366 C68.5524535,103.840243 68.55329,103.8734 68.5559387,103.905438 C68.5413011,103.983783 68.5245725,104.062129 68.5071468,104.140335 C68.4756413,104.283175 68.4439963,104.409927 68.4124907,104.552628 M68.1537546,105.3982 C68.1913941,105.292293 68.232658,105.180791 68.2386524,105.186946 C68.2523141,105.200657 68.2093773,105.292433 68.1537546,105.3982 M66.3743866,107.644617 C66.3926487,107.630627 66.4065892,107.620274 66.4233178,107.607543 C66.3973885,107.629367 66.3778717,107.644617 66.3743866,107.644617 M11.103987,108.700182 C11.1603067,108.7034 11.206868,108.702001 11.2177416,108.691229 C11.2084015,108.706618 11.1660223,108.707877 11.103987,108.700182 M8.31950743,107.521922 C8.40677509,107.58236 8.50686803,107.65371 8.50017658,107.660426 C8.48707249,107.667001 8.40816914,107.602086 8.31950743,107.521922 M7.48976766,106.697895 C7.54678439,106.76351 7.59348513,106.82003 7.58386617,106.82003 C7.57689591,106.82003 7.53591078,106.763929 7.48976766,106.697895 M6.65166357,105.234373 C6.64873606,105.237311 6.65556691,105.264732 6.66727695,105.302926 C6.65166357,105.264872 6.64399628,105.238291 6.65166357,105.234373 M6.36727695,104.20371 C6.3391171,104.196855 6.32671004,104.038206 6.32141264,103.856332 C6.34511152,103.983644 6.38358736,104.20371 6.36727695,104.20371 M6.79385688,9.54332117 C6.7836803,9.54332117 6.76249071,9.57395985 6.73865242,9.61551095 C6.75914498,9.5711618 6.77810409,9.54332117 6.79385688,9.54332117 M8.3480855,7.56733577 C8.26207249,7.64344282 8.16839219,7.7261253 8.16839219,7.71982968 C8.16839219,7.69212895 8.24980483,7.63113139 8.3480855,7.56733577 M65.3426487,6.84557786 C65.2312639,6.8061253 65.1038476,6.75925791 65.1103996,6.75268248 C65.1211338,6.73631387 65.2189963,6.78052311 65.3426487,6.84557786 M66.706171,7.68807178 C66.706171,7.70304136 66.5765242,7.58748175 66.4820074,7.50270073 C66.6083086,7.5846837 66.706171,7.6581326 66.706171,7.68807178 M67.5434387,8.59184307 C67.5364684,8.599118 67.4556134,8.48733577 67.3934387,8.39849757 C67.4864219,8.49810827 67.5554275,8.57995134 67.5434387,8.59184307 M67.3888383,8.39178224 C67.3215056,8.29510949 67.2812175,8.2331326 67.3888383,8.39178224 M68.0807063,9.47994526 C68.1023141,9.47994526 68.1435781,9.59536496 68.1837268,9.72393552 C68.1345167,9.62306569 68.0653717,9.47994526 68.0807063,9.47994526 M74.5585874,8.98832725 C73.3419981,3.70826034 68.4124907,0.0614172749 63.0879089,0.0296593674 L58.9800558,0.0296593674 L39.4201115,0.0296593674 L18.453987,0.0296593674 L12.5765242,0.0296593674 L11.6917193,0.0296593674 C8.61086431,0.0614172749 5.60891264,1.26653893 3.42847584,3.47042579 C1.07434015,5.83310219 8.36431227e-05,8.98832725 8.36431227e-05,12.2705839 L8.36431227e-05,15.8856691 L8.36431227e-05,31.1552068 L8.36431227e-05,52.7668127 L8.36431227e-05,75.4569282 L8.36431227e-05,93.960736 L8.36431227e-05,103.014538 C0.015697026,107.279891 2.18038104,111.354976 5.94055762,113.463729 C8.23154275,114.748035 10.680474,114.98601 13.2243401,114.98601 L29.9560316,114.98601 L52.091487,114.98601 C55.788513,114.98601 59.4856784,115.017628 63.1827045,114.98601 C69.4563569,114.923893 74.5631877,109.916916 74.8588662,103.674738 C74.8774071,103.536794 74.8903717,103.396892 74.8903717,103.252512 L74.8903717,96.3234124 L74.8903717,79.0560645 L74.8903717,56.7150061 L74.8903717,34.5484063 L74.8903717,17.8201034 L74.8903717,13.1427372 C74.8903717,11.7315389 74.8744796,10.3837165 74.5585874,8.98832725" id="Fill-3" fill="#2E3C45" mask="url(#mask-2)"></path>
                    </g>
                    <path d="M69.0023002,22.9942146 C69.001882,22.9795768 69.0014638,22.9692607 69.0010455,22.9564352 C68.9992333,22.9469555 68.9972816,22.9376153 68.9953299,22.9281356 C68.9971422,22.9745582 69.0002091,23.0261389 69.0046701,23.0718644 C69.0042519,23.0462135 69.0023002,23.0201443 69.0023002,22.9942146" id="Fill-6" fill="#2E3C45"></path>
                    <path d="M67.8408404,116.887717 C67.7778089,117.156501 67.6834004,117.425425 67.5891307,117.694348 C67.5808005,117.719747 67.5744141,117.739564 67.5678888,117.759939 C67.4986096,117.890145 67.4166963,118.032212 67.4001748,118.073939 C67.2587009,118.342723 67.0855724,118.595737 66.9124438,118.8648 C66.8985602,118.887967 66.8842601,118.907784 66.8700988,118.925926 C66.8610745,118.936672 66.8514948,118.947976 66.8426093,118.958582 C66.8405267,118.960815 66.8383054,118.963327 66.8362228,118.96556 L66.8370558,118.965141 C66.7952662,119.014823 66.7534766,119.064365 66.7079383,119.117815 C66.5189825,119.32338 66.3301655,119.513175 66.12566,119.702971 C66.1344066,119.694179 66.0408311,119.778471 65.9532256,119.855086 C65.8981077,119.886207 65.8527083,119.927097 65.795369,119.955985 C65.5435204,120.130011 65.2759834,120.288267 65.0085852,120.430613 C64.8907134,120.489785 64.7735358,120.536117 64.6685757,120.606314 C64.4221417,120.681813 64.1858428,120.768477 63.9227485,120.841884 C63.7811357,120.873423 63.6553503,120.905102 63.5135987,120.936781 C63.4934674,120.939572 63.4752799,120.944457 63.4559817,120.948364 C63.1638707,120.914871 62.8069232,121 62.5066209,121 L58.4312277,121 L39.3444651,121 L18.6370694,121 L12.516066,121 L11.3831639,121 L11.2257238,121 C11.0841111,121 10.9424983,121 10.7851971,120.98423 C10.6238696,120.972647 10.5450107,120.971531 10.5173823,120.975578 C10.2402656,120.90901 9.8974794,120.803924 9.84111196,120.794295 C9.76239193,120.778665 9.05432811,120.604639 9.05432811,120.525511 C9.05432811,120.493832 9.66798342,120.825974 9.24314513,120.588869 C9.11722084,120.525511 8.99143539,120.462153 8.88119957,120.398934 C8.58228557,120.240678 8.29906004,120.051022 8.01583452,119.861227 C8.00181208,119.852016 7.99167705,119.845318 7.98001482,119.837782 C7.8593663,119.727672 7.72566719,119.594397 7.71678168,119.576534 C7.51227619,119.386599 7.33914765,119.181173 7.15033063,118.991238 C7.1386684,118.979096 7.13047708,118.970584 7.12034205,118.959977 C7.0770252,118.896619 7.03745693,118.83675 7.02454518,118.817212 C6.85141663,118.564337 6.6941154,118.295274 6.55250263,118.026351 C6.53723067,118.003464 6.47767001,117.898518 6.42380162,117.794968 C6.41227823,117.755474 6.39853346,117.709002 6.37937409,117.64676 C6.28496558,117.346297 6.19055707,117.045834 6.11183704,116.745231 C6.08032125,116.602885 6.06463278,116.460538 6.033117,116.334101 C6.01978874,116.26851 6.01034789,116.222038 6.00312842,116.186451 C5.99701963,115.962464 6.00174005,115.705961 6.00174005,115.653907 L6.00174005,115.052981 L6.00174005,111.399278 L6.00174005,96.3101159 L6.00174005,75.1473582 L6.00174005,52.8617367 L6.00174005,34.3720254 L6.00174005,24.818752 L6.00174005,24.1702375 C6.00174005,24.0174242 6.02478684,23.8530278 6.03075679,23.6972839 C6.08448634,23.4321284 6.13946541,23.173532 6.20624554,22.9048876 C6.22401656,22.8426458 6.28149468,22.6000983 6.3424437,22.3999757 C6.36535165,22.3671802 6.40186553,22.3078691 6.45795529,22.2089242 C6.53667533,22.0508078 6.61539536,21.9084612 6.6941154,21.7502052 C6.8343398,21.5104488 6.99858284,21.2949751 7.14436068,21.0605218 C7.14658206,21.0580098 7.14797042,21.0567538 7.15033063,21.0543814 C7.24473914,20.9594836 7.32345918,20.8488161 7.41786768,20.7539183 C7.6066847,20.5482135 7.81132903,20.3743273 8,20.1845318 C8.03374437,20.1518758 8.05942904,20.1266162 8.08178164,20.1048456 C8.19298931,20.0354865 8.30877857,19.9697558 8.3462643,19.9471478 C8.61380135,19.7731221 8.88119957,19.6466848 9.14873662,19.4885684 C9.20593707,19.4564706 9.24786556,19.4326066 9.28201922,19.4123711 C9.37295683,19.3808315 9.4548701,19.3547346 9.44778946,19.3619915 C9.71518767,19.2670938 9.98272473,19.1881053 10.2502618,19.1247471 C10.3903473,19.0933471 10.5301552,19.0774378 10.6549688,19.0464565 C10.6619106,19.0461774 10.6677418,19.0460378 10.6751001,19.0456191 C10.9424983,19.0298494 11.2100353,19.0140796 11.4775724,19.0140796 L12.8937,19.0140796 L29.2267885,19.0140796 L50.9728167,19.0140796 C54.8437043,19.0140796 58.7144532,18.9824005 62.6010294,19.0140796 L62.9629749,19.0140796 C63.0919536,19.0140796 63.2221818,19.0274769 63.3631004,19.0417116 C63.69117,19.1152574 64.0186842,19.1779178 64.3320371,19.2830031 C64.4578226,19.3303124 64.5992965,19.3777613 64.7253596,19.4094404 C64.7582638,19.4201862 64.7856145,19.4291177 64.8104661,19.4372119 C65.0428777,19.5614164 65.3505383,19.7474439 65.3703919,19.7573523 C65.426204,19.785403 65.6848555,19.9292847 65.8874173,20.0586527 C65.9118525,20.0827958 65.9419799,20.1119629 65.9840472,20.1528527 C66.12566,20.2951993 66.2831,20.4217762 66.4247128,20.5639832 C66.454146,20.593569 66.6723963,20.8068099 66.8255325,20.9714854 C66.8333073,20.9829289 66.8402491,20.9929769 66.8495511,21.0069325 C66.9439596,21.1494187 67.0383681,21.2916257 67.1327766,21.4339724 C67.2900779,21.7027563 67.4318295,21.9716798 67.5733034,22.2406033 C67.5959337,22.2816326 67.6121775,22.3105206 67.6250892,22.3336868 C67.6681284,22.4753357 67.7071413,22.6203339 67.715055,22.6361037 C67.7936362,22.9050271 67.8723562,23.1736715 67.9194216,23.4585044 C67.9194216,23.443851 67.9396917,23.5306546 67.9596841,23.629739 C67.9548248,23.5056741 67.9580181,23.4307328 67.9653764,23.6579292 C67.9868959,23.7655265 68.0059165,23.8777291 67.9982805,23.8855443 C67.9849522,23.8943363 67.9755114,23.8417238 67.9689861,23.7734812 C67.9720405,23.9694171 67.9842581,24.1661904 67.9982805,24.3759424 L67.9982805,26.4794628 L67.9982805,39.2751691 L67.9982805,59.4889493 L67.9982805,81.8853779 L67.9982805,101.782786 L67.9982805,113.961517 C67.9981417,114.483455 67.9981417,115.037072 67.9981417,115.590688 C67.9981417,115.780484 67.9981417,115.95451 67.9824532,116.144305 C67.980093,116.176822 67.9810648,116.210175 67.9837027,116.242134 C67.9691249,116.320285 67.9524646,116.398296 67.9352489,116.476447 C67.9037332,116.618654 67.8723562,116.745231 67.8408404,116.887717" id="Fill-8" fill="#22B099"></path>
                    <path d="M27.4428796,12.561701 L27.2856483,12.561701 L27.2856483,8.39296099 L27.2856483,6.91230133 L27.2856483,6.6867798 C27.285371,6.68180924 27.2850937,6.67783278 27.2848163,6.67314625 C27.2850937,6.67229416 27.285371,6.67158408 27.2856483,6.67073198 C27.2995135,6.62826917 27.3089418,6.59745168 27.316845,6.57146274 C27.3236389,6.55811323 27.3297396,6.54618388 27.3354243,6.53482259 C27.3423569,6.52630163 27.3494282,6.51763865 27.3566381,6.50897567 C27.3627388,6.50499922 27.3675916,6.50173285 27.3739696,6.49761438 C27.4115442,6.48554301 27.4489803,6.47347165 27.4900213,6.46154229 C27.4939035,6.46154229 27.5151173,6.4562877 27.5442342,6.44861883 C27.5188609,6.44819278 27.4951514,6.44677262 27.4746309,6.44521045 C27.4880801,6.43825166 27.4980631,6.43299706 27.5086006,6.42760045 C27.5338353,6.42774247 27.5632295,6.42831053 27.6001109,6.42930464 C27.6042705,6.42973069 27.608846,6.42958868 27.6132829,6.43001472 C27.6956421,6.40743417 27.7885389,6.38101918 27.7885389,6.38101918 C27.7953329,6.40885433 27.7642749,6.42575424 27.718381,6.4359794 C27.8413653,6.43839367 27.9686478,6.42930464 28.0870566,6.42930464 L44.1471139,6.42930464 L47.070036,6.42930464 L47.3685537,6.42930464 L47.4156954,6.42930464 C47.4215188,6.4288786 47.426233,6.42845255 47.4316404,6.42831053 C47.4938951,6.44606254 47.5605867,6.46154229 47.6123039,6.47247753 C47.617434,6.47474979 47.6211776,6.47645398 47.6260304,6.47872624 C47.6286648,6.48142455 47.6314379,6.4836968 47.6342109,6.48653712 C47.6344882,6.48511696 47.6344882,6.48398084 47.6347655,6.48256067 C47.6491853,6.48909341 47.6622186,6.49520011 47.6731721,6.50102276 C47.680798,6.51479832 47.6896717,6.53070413 47.7002092,6.54916622 C47.7049234,6.55385275 47.7099149,6.55839726 47.714629,6.56308379 C47.714629,6.56564008 47.7143517,6.56819637 47.7143517,6.57103669 C47.7136585,6.57103669 47.7129652,6.57117871 47.7124106,6.57117871 C47.7129652,6.57217282 47.7135198,6.57316693 47.7140744,6.57430306 C47.7140744,6.57657532 47.7139358,6.57884758 47.7139358,6.58140387 C47.7121333,6.57771145 47.7107468,6.57472911 47.7092216,6.57132072 C47.7004865,6.57103669 47.6905036,6.56890645 47.6809366,6.56521403 C47.6878692,6.59347523 47.6981295,6.63181957 47.7143517,6.6867798 L47.7143517,12.561701 L27.4428796,12.561701 Z M27.3822887,6.44066593 C27.5162265,6.16799506 27.4615976,6.29438937 27.3822887,6.44066593 L27.3822887,6.44066593 Z M27.5213566,6.34892354 C27.492101,6.37888894 27.4577154,6.40345772 27.4240229,6.42859456 C27.4700554,6.37576458 27.5097098,6.33699419 27.5213566,6.34892354 L27.5213566,6.34892354 Z M27.4163971,6.43754158 C27.4186155,6.43484327 27.4208339,6.432429 27.4229137,6.42987271 C27.4348378,6.42845255 27.4577154,6.42788448 27.4872482,6.42774247 C27.4767107,6.43257101 27.4660345,6.43739956 27.4534171,6.44322222 C27.4369176,6.44137601 27.4237456,6.4395298 27.4163971,6.43754158 L27.4163971,6.43754158 Z M27.4226364,6.42987271 C27.4194474,6.43214497 27.416813,6.43455924 27.4137627,6.43697351 C27.404889,6.43427521 27.4062755,6.4315769 27.4226364,6.42987271 L27.4226364,6.42987271 Z M47.633379,6.42476013 C47.5542087,6.27848357 47.4994412,6.15166321 47.633379,6.42476013 L47.633379,6.42476013 Z M47.7168475,6.52814784 C47.7158769,6.53808896 47.7151837,6.54959226 47.714629,6.56279976 C47.7028436,6.54504775 47.6905036,6.52530751 47.677609,6.50357905 C47.6943859,6.51252607 47.7075578,6.52090502 47.7168475,6.52814784 L47.7168475,6.52814784 Z M47.5546247,6.41368288 C47.5554566,6.41354086 47.5562885,6.41325683 47.5569818,6.41325683 L47.5571204,6.41325683 C47.5616959,6.41680723 47.5651622,6.42135174 47.5694604,6.42490215 C47.5689058,6.42476013 47.5684899,6.42461811 47.5680739,6.42461811 C47.5629438,6.42049965 47.5592002,6.41737529 47.5546247,6.41368288 L47.5546247,6.41368288 Z M53.9836391,6.37519652 C53.7300446,2.79539718 50.9592237,0.10106811 47.4156954,0.0071954814 C46.8499954,-0.00899435175 46.299963,0.0071954814 45.734263,0.0071954814 L36.7142593,0.0071954814 L28.4170483,0.0071954814 C27.0500786,0.0071954814 25.7299732,0.136004066 24.4728158,0.795810775 C22.162874,2.01913729 21,4.48169612 21,7.07320555 L21,15.7807795 C21,17.5190563 22.4457241,19 24.1428241,19 L47.5571204,19 L50.8570372,19 C52.5542759,19 54,17.5190563 54,15.7807795 L54,6.6867798 C54,6.58239798 53.9943153,6.47858422 53.9836391,6.37519652 L53.9836391,6.37519652 Z" id="Fill-10" fill="#2E3C45"></path>
                    <path d="M47.987905,5.99462028 C47.9958511,6.0025665 48.0046336,6.00953686 48.0125797,6.01734366 C47.9955723,5.98500118 47.9849775,5.97064224 47.987905,5.99462028" id="Fill-12" fill="#2E3C45"></path>
                    <path d="M48.0048095,6.01261636 C48.0059247,6.01261636 48.0069006,6.01247695 48.0080158,6.01247695 C48.0036942,6.00494896 47.9996515,5.99797859 47.9957481,5.99086883 C47.9944935,5.98975357 47.9930994,5.98863831 47.9919842,5.98738364 C47.996027,5.99491164 48.0002091,6.00341548 48.0048095,6.01261636" id="Fill-14" fill="#2E3C45"></path>
                    <path d="M48.0244108,6.03868551 C48.019671,6.01958672 48.0164647,6.00522777 48.0154889,5.99672393 C48.0033606,5.98445609 47.9896989,5.97344292 47.9774312,5.96131449 C47.9682305,6.00299726 47.9949963,6.02836937 48.0244108,6.03868551" id="Fill-16" fill="#2E3C45"></path>
                    <path d="M28.0875465,5.99659188 C28.0517193,5.99589484 28.0164498,5.99380373 27.9817379,5.99073677 C27.9567844,5.99742832 27.9325279,6.00398046 27.9124535,6.00899912 C27.972119,6.01025379 28.038197,6.00718683 28.0875465,5.99659188" id="Fill-18" fill="#2E3C45"></path>
                    <path d="M51.5670725,68.399325 C51.007017,67.432632 49.9801112,66.8302144 48.8756488,66.8302144 L32.3309497,66.8302144 C33.3050071,65.5042802 34.2781035,64.1782061 35.2472192,62.852272 C38.6543609,58.2245071 42.045854,53.5967423 45.4529957,48.9689775 C46.2462705,47.8912539 47.0241711,46.829332 47.8177204,45.7516084 C48.7978175,44.4203604 48.0665882,42.1540226 46.6974721,41.409111 C45.0639768,40.5375072 43.4771528,41.1238436 42.434873,42.5501807 C40.2878562,45.466341 38.1408394,48.3825012 36.0096085,51.2986615 C32.6024668,55.9265661 29.2109737,60.5541911 25.803832,65.1819559 C25.01042,66.2596795 24.2325194,67.3216015 23.4391074,68.3991852 C22.7857093,69.2709289 22.9257231,70.7132074 23.4391074,71.6007527 C23.9991629,72.5675856 25.0259314,73.1697236 26.1305311,73.1697236 L42.6805836,73.1697236 C41.7078989,74.4957976 40.7352143,75.8217318 39.7589606,77.1478058 C36.3674675,81.7754308 32.9603258,86.4031956 29.5686955,91.0311003 C28.7754207,92.1088238 27.9975201,93.1707458 27.2041081,94.2483295 C26.2238737,95.5795775 26.955103,97.8459153 28.3242191,98.5908269 C29.9577144,99.4625706 31.5445384,98.8760943 32.5868182,97.4497572 C34.733835,94.5337368 36.8652032,91.6174367 39.0120827,88.7014163 C42.403713,84.0736514 45.8107175,79.4457468 49.2022106,74.817982 C49.9957598,73.7402584 50.7736605,72.6784763 51.5670725,71.6007527 C52.204822,70.729009 52.0804567,69.3026719 51.5670725,68.399325" id="Fill-20" fill="#F2EEDE"></path>
                </g>
            </g>
        </g>
    </g>
</svg>